<?xml version="1.0" encoding="iso-8859-1"?>
<!-- Generator: Adobe Illustrator 19.0.0, SVG Export Plug-In . SVG Version: 6.00 Build 0)  -->
<svg version="1.1" id="Capa_1" xmlns="http://www.w3.org/2000/svg" xmlns:xlink="http://www.w3.org/1999/xlink" x="0px" y="0px"
	 viewBox="0 0 490.6 490.6" style="enable-background:new 0 0 490.6 490.6;" xml:space="preserve">
<g>
	<path d="M14.25,343.2v-12.5c0-6,4.8-10.8,10.8-10.8h440.5c6,0,10.8,4.8,10.8,10.8v12.5c0,6-4.8,10.8-10.8,10.8H25.05
		C19.05,354,14.25,349.2,14.25,343.2z M25.05,422.3h440.5c6,0,10.8-4.8,10.8-10.8V399c0-6-4.8-10.8-10.8-10.8H25.05
		c-6,0-10.8,4.8-10.8,10.8v12.5C14.25,417.5,19.05,422.3,25.05,422.3z M25.05,490.6h440.5c6,0,10.8-4.8,10.8-10.8v-12.5
		c0-6-4.8-10.8-10.8-10.8H25.05c-6,0-10.8,4.8-10.8,10.8v12.5C14.25,485.7,19.05,490.6,25.05,490.6z M333.15,142.9
		c0,48.4-39.2,87.6-87.6,87.6s-87.6-39.2-87.6-87.6s39.2-87.6,87.6-87.6C293.95,55.3,333.15,94.5,333.15,142.9z M262.25,137.4
		c-4.7-2.6-9.7-4.6-14.7-6.6c-2.9-1.2-5.6-2.6-8-4.5c-4.8-3.8-3.9-10,1.7-12.5c1.6-0.7,3.2-0.9,4.9-1c6.5-0.4,12.7,0.8,18.5,3.7
		c2.9,1.4,3.9,1,4.9-2.1c1-3.2,1.9-6.5,2.9-9.7c0.6-2.2-0.1-3.6-2.2-4.5c-3.8-1.7-7.6-2.9-11.7-3.5c-5.3-0.8-5.3-0.9-5.3-6.2
		c0-7.5,0-7.5-7.6-7.5c-1.1,0-2.2,0-3.3,0c-3.5,0.1-4.1,0.7-4.2,4.3c0,1.6,0,3.2,0,4.8c0,4.7-0.1,4.6-4.6,6.3
		c-10.9,4-17.6,11.4-18.4,23.3c-0.6,10.5,4.8,17.6,13.5,22.8c5.3,3.2,11.2,5.1,16.9,7.6c2.2,1,4.3,2.1,6.2,3.6
		c5.4,4.5,4.4,12-2,14.8c-3.5,1.5-7.1,1.9-10.8,1.4c-5.8-0.7-11.3-2.2-16.5-4.9c-3-1.6-3.9-1.2-5,2.1c-0.9,2.8-1.7,5.7-2.5,8.6
		c-1.1,3.9-0.7,4.8,3,6.6c4.7,2.3,9.7,3.4,14.9,4.3c4,0.6,4.1,0.8,4.2,5c0,1.9,0,3.8,0.1,5.7c0,2.4,1.2,3.8,3.6,3.8
		c2.8,0.1,5.6,0.1,8.4,0c2.3-0.1,3.5-1.3,3.5-3.6c0-2.6,0.1-5.2,0-7.8s1-4,3.6-4.7c5.8-1.6,10.8-4.7,14.6-9.4
		C281.25,164.6,277.25,145.7,262.25,137.4z M476.25,11v263.8c0,6.1-4.9,11-11,11H25.75c-6.1,0-11-4.9-11-11V11c0-6.1,4.9-11,11-11
		h439.5C471.35,0,476.25,4.9,476.25,11z M442.15,83.2c-3.2,0.8-6.6,1.3-10,1.3c-22.4,0-40.5-18.1-40.5-40.5c0-3.4,0.4-6.7,1.2-9.9
		h-297c0.5,2.4,0.7,4.9,0.7,7.4c0,22.4-18.1,40.5-40.5,40.5c-2.4,0-4.8-0.2-7.1-0.6v122.9c2.3-0.4,4.7-0.6,7.1-0.6
		c22.4,0,40.5,18.1,40.5,40.5c0,2.5-0.2,5-0.7,7.4h296.2c-0.2-1.6-0.3-3.3-0.3-5c0-22.4,18.1-40.5,40.5-40.5c3.5,0,6.8,0.4,10,1.3
		V83.2H442.15z M398.95,127.7h-34c-3,0-5.4,2.4-5.4,5.4v19.5c0,3,2.4,5.4,5.4,5.4h34c3,0,5.4-2.4,5.4-5.4v-19.5
		C404.35,130.2,401.85,127.7,398.95,127.7z M126.15,127.7h-34c-3,0-5.4,2.4-5.4,5.4v19.5c0,3,2.4,5.4,5.4,5.4h34
		c3,0,5.4-2.4,5.4-5.4v-19.5C131.55,130.2,129.15,127.7,126.15,127.7z"/>
</g>
<g>
</g>
<g>
</g>
<g>
</g>
<g>
</g>
<g>
</g>
<g>
</g>
<g>
</g>
<g>
</g>
<g>
</g>
<g>
</g>
<g>
</g>
<g>
</g>
<g>
</g>
<g>
</g>
<g>
</g>
</svg>
